<svg xmlns="http://www.w3.org/2000/svg" width="1000" height="600" viewBox="0 0 1000 600" preserveAspectRatio="none">
 <g fill="none" stroke="#5b301e" opacity=".57">
  <rect x="5" y="5" width="990" height="590" stroke-width="5"/>
  <rect x="15" y="15" width="970" height="570" stroke="#f0d995" stroke-width="2"/>
  <rect x="20" y="20" width="960" height="560" stroke="#7b4829" stroke-width="1.5"/>
 </g>
 <g stroke="#8b3e2f" fill="none" stroke-width="2.2" opacity=".88">
  <path d="M20 92Q20 20 92 20 M980 92Q980 20 908 20 M20 508Q20 580 92 580 M980 508Q980 580 908 580"/>
  <path d="M20 120 Q52 88 20 56 M980 120 Q948 88 980 56 M20 480 Q52 512 20 544 M980 480 Q948 512 980 544"/>
 </g>
 <g fill="#9b7339" opacity=".84"><circle cx="20" cy="20" r="5"/><circle cx="980" cy="20" r="5"/><circle cx="20" cy="580" r="5"/><circle cx="980" cy="580" r="5"/></g>
 <g fill="#7d3b2b" font-family="Georgia,serif" font-size="30" text-anchor="middle" dominant-baseline="middle" opacity=".80"><text x="49" y="50">✠</text><text x="951" y="50">✠</text><text x="49" y="550">✠</text><text x="951" y="550">✠</text></g>
</svg>
